<?xml version="1.0"?><svg width="313" height="1187" xmlns="http://www.w3.org/2000/svg">
 <title>Beer bottle (plain BW shape)</title>
 <metadata id="metadata10">image/svg+xmlBeer bottle (plain BW shape)2011-01-08Based on http://www.openclipart.org/detail/48811j4p4nbottleglass bottledrinkbeerDenilson Figueiredo de S</metadata>

 <g>
  <title>Layer 1</title>
  <g display="inline" id="layer2">
   <g id="g4041">
    <g id="g4036">
     <path fill="#000000" fill-rule="evenodd" id="path3932" d="m166.739731,0.000302c-7.403366,0.03528 -14.797272,0.26908 -22.1875,0.59375c-5.47496,0.24053 -10.940842,0.72822 -16.375,1.40625c-5.434151,0.67803 -10.857574,1.54493 -16.249992,2.53125c-3.916786,0.75147 -8.06501,0.944 -12.09375,1.5625c-2.014374,0.30925 -4.009583,0.73001 -5.90625,1.375c-1.896667,0.64499 -3.693153,1.52328 -5.375,2.75c-1.189728,0.89228 -2.161118,1.97686 -2.9375,3.1875c-0.776382,1.21064 -1.357788,2.53872 -1.84375,3.937501c-0.971916,2.797569 -1.514671,5.856171 -2.0625,8.625c-0.170959,1.733891 -0.499603,3.435551 -0.90625,5.125c-0.406647,1.689447 -0.861839,3.351538 -1.3125,5.031248c-0.450661,1.67971 -0.884506,3.357819 -1.1875,5.0625c-0.302994,1.704681 -0.473869,3.454399 -0.4375,5.21875c0.134308,0.75761 0.350327,1.38813 0.65625,1.9375c0.305923,0.54937 0.685051,1.014542 1.125,1.375c0.439949,0.360458 0.932358,0.621601 1.46875,0.8125c0.536392,0.190899 1.123512,0.303082 1.71875,0.34375c1.190491,0.081341 2.455841,-0.12772 3.65625,-0.53125c1.200409,-0.40353 2.34034,-1.016312 3.25,-1.75c1.145638,1.006279 2.415894,1.767281 3.75,2.28125c1.334106,0.513969 2.737251,0.786861 4.15625,0.84375c1.418999,0.056889 2.84967,-0.10376 4.25,-0.46875c1.40033,-0.36499 2.753166,-0.93586 4.03125,-1.6875c0.688263,-0.388439 1.346062,-0.600719 2,-0.6875c0.653938,-0.086781 1.306908,-0.03429 1.9375,0.09375c1.261177,0.256088 2.48513,0.843201 3.71875,1.4375c1.23362,0.594299 2.487396,1.199718 3.78125,1.4375c0.646919,0.118889 1.290314,0.131748 1.96875,0.03125c0.678436,-0.100498 1.372833,-0.312019 2.09375,-0.71875c1.191933,-0.449169 2.416451,-0.881031 3.65625,-1.21875c1.239799,-0.337719 2.492996,-0.600052 3.749992,-0.71875c1.257004,-0.118698 2.53772,-0.082878 3.78125,0.125c1.24353,0.207878 2.456833,0.60796 3.65625,1.25c0.707932,0.509918 1.425262,0.828701 2.15625,1.03125c0.730988,0.202549 1.472534,0.266689 2.21875,0.25c1.492447,-0.033379 3.024765,-0.3997 4.53125,-0.78125c1.506485,-0.38155 2.979492,-0.756611 4.4375,-0.78125c0.729004,-0.012321 1.451096,0.04089 2.15625,0.25c0.705154,0.209099 1.420258,0.575089 2.09375,1.09375c1.522934,0.695122 3.008347,1.052551 4.5,1.15625c1.491653,0.103699 2.987961,-0.06385 4.4375,-0.375c1.449539,-0.31115 2.853439,-0.794312 4.25,-1.34375c1.396561,-0.549438 2.761017,-1.170078 4.09375,-1.78125c1.336197,0.16293 2.688507,0.697842 4.03125,1.3125c1.342743,0.614658 2.691772,1.306339 4.03125,1.875c1.339478,0.568661 2.673615,1.006321 4,1.03125c0.663193,0.012459 1.310669,-0.064461 1.96875,-0.28125c0.658081,-0.216789 1.317017,-0.58548 1.96875,-1.09375c0.535431,-0.65517 1.089722,-1.169472 1.65625,-1.5625c0.566528,-0.393028 1.157776,-0.666229 1.75,-0.84375c1.184433,-0.355042 2.401505,-0.32103 3.65625,-0.09375c2.509506,0.454552 5.125076,1.704201 7.65625,2.25c1.392685,-0.453522 2.754364,-0.783951 4.09375,-1c1.339386,-0.216049 2.652237,-0.30748 3.96875,-0.28125c1.316513,0.02623 2.644653,0.164188 3.96875,0.4375c1.324097,0.273319 2.637909,0.662289 4,1.1875c2.849625,-0.94239 6.115448,-1.496201 9.1875,-2.375c1.536026,-0.4394 3.03598,-0.93589 4.40625,-1.625c1.37027,-0.68911 2.599319,-1.571609 3.65625,-2.6875c0.230057,-1.887569 0.192963,-3.76461 -0.0625,-5.625c-0.255463,-1.86039 -0.724167,-3.70462 -1.28125,-5.53125c-1.114197,-3.653248 -2.626404,-7.208828 -3.84375,-10.687498c-1.250824,-2.89123 -1.880493,-6.308599 -2.96875,-9.406251c-0.544128,-1.54883 -1.202805,-3.02555 -2.125,-4.3125c-0.461105,-0.64348 -0.985794,-1.24243 -1.59375,-1.78125c-0.607956,-0.53882 -1.304062,-1.02945 -2.09375,-1.4375c-2.479385,-1.25752 -5.049301,-2.20806 -7.6875,-2.96875c-2.638199,-0.76069 -5.331116,-1.33531 -8.0625,-1.75c-2.731384,-0.41469 -5.491043,-0.68673 -8.25,-0.90625c-2.758957,-0.21952 -5.529083,-0.35608 -8.25,-0.53125c-7.388153,-0.47564 -14.784134,-0.66028 -22.1875,-0.625z"/>
     <path fill="#000000" id="path2991" d="m97.276489,39.944752c-1.766197,3.9548 2.112602,3.1516 0,0zm64.951996,-1.1199c-1.766998,3.9548 2.112,3.1516 0,0zm-50.393997,-2.2397c-1.765999,3.9548 2.112999,3.1516 0,0zm-7.804001,-3.219601c-1.424995,4.454399 1.783005,4.3722 0,0zm1.084999,-5.739197c-1.765999,3.9548 2.112999,3.151499 0,0zm78.424995,-0.9799c-1.425003,4.454399 1.783005,4.3722 0,0zm34.960007,-2.2747c-0.860001,2.7248 3.599991,8.849098 4.024994,5.389299c-4.458008,-2.1987 3.865005,-2.080299 -0.524994,-3.3596c-1.597,0.399799 -2.466003,-1.233 -3.5,-2.029699l0,0zm-39.241013,-8.316101c0.479004,0.320101 0.996002,0.6728 1.904999,1.522202c0.458008,3.3473 1.646011,8.534899 1.565002,2.037298c-0.269989,-1.1908 -0.349991,-2.458599 -1.253998,-3.383299c-1.401993,-1.779902 -2.539001,-2.196201 -3.953995,-2.393702c-6.837997,0.469701 -4.070007,9.104401 -3.779999,13.6534c1.065002,5.404497 1.425995,10.993799 3.04599,16.2605c1.320999,-4.433002 0.070007,-11.631901 -0.511002,-15.808599c-0.449997,-4.3393 -1.803986,-8.3384 -0.408997,-11.011499c0.425003,-0.813801 2.445999,-1.507001 3.391998,-0.876301zm-68.544991,0.057199c-4.533997,-0.2392 -7.656998,9.440001 -2.772995,10.005501c0.401001,1.8106 3.877998,4.4772 4.592995,3.3627c1.124001,-3.699799 2.764,-11.691399 -1.82,-13.3682zm13.019005,-0.769899c-5.237,2.4193 -2.522003,10.054501 -3.209999,14.8248c-0.126999,2.545099 0.222,12.3398 1.315994,4.821898c-1.728996,-6.484398 7.445992,-5.929298 6.141006,-11.996698c-0.025002,-2.828999 -0.588005,-7.5486 -4.247002,-7.65zm15.677994,-0.944901c-3.977005,0.4627 1.37999,9.081701 -3.584,4.419701c-2.123001,0.957001 -0.748001,5.359501 1.886002,4.900501c2.326996,4.877998 0.541,12.446396 1.112991,16.218998c0.255997,-3.977699 2.876999,-9.410198 5.296005,-5.0266c1.199997,-5.655399 1.089996,-11.763399 0.007004,-17.439798c-0.755005,-1.789001 -2.807999,-3.036701 -4.719009,-3.072802l0.001007,0zm19.597,-0.28c-7.919006,-0.3247 -6.089005,8.326901 -5.531006,13.459102c1.557999,4.660597 -1.916992,13.107798 2.889008,15.272799c2.263,-4.885902 -0.214005,-11.098598 0.37999,-16.504c-0.398987,-2.367701 0.929001,-10.3321 2.297012,-4.0739c0.252991,2.415701 1.929993,6.493401 1.427994,1.3813c-1.544006,-2.8881 3.285004,-9.4954 -1.462997,-9.5353zm33.070999,-0.07c-4.712006,2.8474 -0.274002,9.997901 0,14.4815c1.440994,5.260201 2.457993,10.758499 4.720001,15.711399c1.056,-5.143299 -1.904007,-10.741402 -2.605011,-15.999098c-0.348999,-2.291 -3.904999,-12.758402 0.603012,-8.5369c1.272995,7.222599 2.881989,14.536097 5.668991,21.396498c4.533005,3.827801 1.233002,-8.063801 0.161011,-10.751999c-1.643005,-5.623899 -1.481003,-13.218 -7.483002,-16.1962l-1.065002,-0.1052zm24.46199,-0.244901c-3.783997,2.286501 3.938004,13.821001 3.779007,5.879301c-0.520996,-2.1378 -1.238998,-5.367701 -3.779007,-5.879301zm-11.793991,0c-3.375,4.702301 1.218002,12.1014 1.854996,17.637701c0.994003,2.803398 1.628998,7.556 3.339996,9.055397c-0.148987,-4.373798 -2.278,-8.678196 -1.648987,-13.016796c3.406998,1.061298 2.166992,10.610199 5.913986,10.402996c-3.46199,-7.245398 -3.510986,-15.679497 -7.186996,-22.821298c-0.485001,-0.7564 -1.354004,-1.3054 -2.272995,-1.258zm25.196991,9.903702c-2.501999,-5.7824 -2.444992,-13.649611 -8.762985,-16.913981c-9.917007,-5.03009 -21.368011,-5.48223 -32.252014,-6.18291c-14.775986,-0.95129 -29.610992,-0.6592 -44.390991,-0.00986c-10.949997,0.48106 -21.819992,1.96632 -32.603996,3.93896c-7.834,1.50295 -16.668396,0.77206 -23.395798,5.67892c-4.759003,3.56907 -5.719299,10.205972 -6.815002,15.74367c-0.6838,6.935499 -4.019997,13.376799 -3.874496,20.434198c1.074501,6.060902 8.241898,5.148499 11.880501,2.213799c4.582596,4.025101 11.0868,3.970901 16.199799,0.964302c5.505997,-3.107502 9.737999,4.827599 15.504997,1.573799c4.768005,-1.7967 10.040993,-3.132 14.838997,-0.5639c5.664001,4.079399 12.190002,-3.087299 17.578003,1.062c6.090988,2.780499 11.975998,0.123402 17.306992,-2.321301c5.345001,0.651699 10.781998,6.908199 15.99501,2.841999c4.283997,-5.241299 9.648987,-1.348198 14.710999,-0.256699c5.570999,-1.813999 10.593994,-1.747601 16.041992,0.353302c5.699005,-1.8848 13.024002,-2.225803 17.251999,-6.689404c0.919998,-7.550297 -2.779999,-14.909496 -5.214005,-21.866796l0,-0.000099zm-123.848984,-14.313211c10.917999,-1.69741 21.843002,-3.57159 32.862991,-4.46382c19.787003,-0.86241 39.699997,-1.04798 59.419998,0.99927c7.813004,1.4142 16.147003,2.280251 23.061996,6.43916c4.657013,7.4313 5.990005,16.383601 9.165009,24.481399c2.619003,4.7038 0.459991,9.767899 -5.23201,9.576599c-5.060989,2.829502 -9.964996,2.497002 -14.884995,-0.009098c-5.190002,-0.580803 -10.222992,5.2113 -14.690994,-0.056202c-4.764008,-4.357998 -8.565002,4.617802 -13.613998,3.326801c-5.343002,-3.324799 -12.702011,-5.6991 -18.347,-1.681999c-5.694,3.107597 -10.331009,-3.819702 -16.254013,-1.3783c-6.050995,3.556698 -11.026993,-1.397602 -17.203995,-1.144001c-5.702988,-1.439301 -14.577988,7.109398 -17.318993,-1.010502c-0.551994,-5.3801 -3.965996,2.807201 -7.445,0.7159c-3.988998,1.780502 -9.7967,6.054001 -13.662399,0.98c1.014999,-3.897198 0.008904,-11.270699 3.970001,-13.241997c1.4245,1.919899 1.006798,6.836399 2.421898,1.461597c1.173302,-5.470097 2.333504,-11.559998 0.047501,-16.871798c-5.485901,-4.1211 -4.964195,7.3615 -6.309402,10.57c-1.426895,5.932798 -1.640198,12.35 -4.455894,17.831499c-3.696205,3.351898 -8.158905,0.507401 -5.957703,-4.223801c0.897202,-6.738201 3.965302,-12.931599 4.938301,-19.680798c0.868103,-4.7346 3.405502,-10.282701 8.908798,-10.576601c3.526604,-0.6811 7.052902,-1.362201 10.579903,-2.043301l0,-0.00001z"/>
    </g>
    <path fill="#000000" d="m91.520988,42.625252c-13.143997,4.475899 -13.159203,49.089302 -5,55.656303c3.809502,3.066498 2.921898,4.830498 1.781303,15.218498c-5.027603,45.788002 -11.610207,115.420006 -14.812607,179.000008c-3.765099,74.753998 5.5532,126.783997 -18.343697,170.406982c-21.480598,27.298004 -54.841161,50.947021 -54.937501,89.656006c-0.4691,188.479004 0,376.957031 0,565.435974c0,16.130005 20.766601,41.130005 51.406201,52.72998c30.639698,11.599976 69.548801,16.390015 104.958797,16.380005c35.418991,-0.01001 74.342987,-4.839966 104.979004,-16.440063c30.63501,-11.599976 51.375,-36.609985 51.375,-52.72998c0,-188.456909 0.468994,-376.920898 0,-565.375916c-0.096985,-38.703979 -33.428986,-62.329987 -54.906982,-89.625c-23.893021,-43.617004 -14.579025,-95.662994 -18.343033,-170.406982c-3.201996,-63.572006 -9.785995,-133.186005 -14.812988,-178.96801c-1.139999,-10.387001 -2.028,-12.153 1.781998,-15.219002c8.15799,-6.566101 8.141998,-51.181004 -5,-55.656303c-14.227005,-4.844299 -44.246002,-4.286201 -65.064011,-4.317501c-20.817993,-0.0312 -50.832985,-0.589901 -65.061485,4.255001l0,0z" id="path3828"/>
   </g>
  </g>
 </g>
</svg>